<?xml version="1.0" encoding="UTF-8" standalone="no"?>
<svg xmlns:dc="http://purl.org/dc/elements/1.1/" xmlns:cc="http://creativecommons.org/ns#" xmlns:rdf="http://www.w3.org/1999/02/22-rdf-syntax-ns#" xmlns:svg="http://www.w3.org/2000/svg" xmlns="http://www.w3.org/2000/svg" xmlns:sodipodi="http://sodipodi.sourceforge.net/DTD/sodipodi-0.dtd" xmlns:inkscape="http://www.inkscape.org/namespaces/inkscape" version="1.1" id="svg2" xml:space="preserve" width="222" height="250" viewBox="0 0 533.30493 599.89209" sodipodi:docname="FLL-RGB_Challenge-vert-icon-full-color.svg" inkscape:version="0.92.4 (5da689c313, 2019-01-14)"><metadata id="metadata8"><rdf:RDF><cc:Work rdf:about=""><dc:format>image/svg+xml</dc:format><dc:type rdf:resource="http://purl.org/dc/dcmitype/StillImage"/><dc:title/></cc:Work></rdf:RDF></metadata><defs id="defs6"/><sodipodi:namedview pagecolor="#ffffff" bordercolor="#666666" borderopacity="1" objecttolerance="10" gridtolerance="10" guidetolerance="10" inkscape:pageopacity="0" inkscape:pageshadow="2" inkscape:window-width="1490" inkscape:window-height="758" id="namedview4" showgrid="false" inkscape:zoom="0.30844299" inkscape:cx="-441.74644" inkscape:cy="299.94949" inkscape:window-x="0" inkscape:window-y="0" inkscape:window-maximized="0" inkscape:current-layer="g10" fit-margin-top="0" fit-margin-left="0" fit-margin-right="0" fit-margin-bottom="0"/><g id="g10" inkscape:groupmode="layer" inkscape:label="ink_ext_XXXXXX" transform="matrix(1.3333333,0,0,-1.3333333,-76.096398,682.50932)"><g id="g12" transform="scale(0.1)"><path d="m 1124.11,2275.19 h 139.76 v -416.36 h 250.27 v -120.25 h -390.03 v 536.61" style="fill:#211d1d;fill-opacity:1;fill-rule:nonzero;stroke:none" id="path14" inkscape:connector-curvature="0"/><path d="m 1538.13,2275.19 h 427.62 v -112.02 h -287.86 v -93.95 h 263.05 v -108.21 h -263.05 v -102.18 h 295.34 v -120.25 h -435.1 v 536.61" style="fill:#211d1d;fill-opacity:1;fill-rule:nonzero;stroke:none" id="path16" inkscape:connector-curvature="0"/><path d="m 2162.51,1938.51 h 121.75 l -59.39,187.87 h -1.46 z m -9.01,336.67 h 142.06 l 200.61,-536.57 h -145.76 l -33.07,96.18 h -187.13 l -33.85,-96.18 h -143.54 l 200.68,536.57" style="fill:#211d1d;fill-opacity:1;fill-rule:nonzero;stroke:none" id="path18" inkscape:connector-curvature="0"/><path d="m 2986.83,1738.6 h -90.2 l -8.26,58.62 c -36.82,-51.85 -99.96,-69.88 -149.55,-69.88 -162.31,0 -267.52,123.98 -267.52,279.56 0,155.54 105.21,279.56 267.52,279.56 111.22,0 229.98,-59.37 242.75,-193.9 h -139.79 c -4.49,45.84 -49.59,73.65 -105.92,73.65 -90.21,0 -124.77,-79.68 -124.77,-159.31 0,-79.69 34.56,-159.35 124.77,-159.35 69.1,0 115.69,32.36 123.21,81.2 h -97.69 v 103.67 h 225.45 V 1738.6" style="fill:#211d1d;fill-opacity:1;fill-rule:nonzero;stroke:none" id="path20" inkscape:connector-curvature="0"/><path d="m 3494.76,1960.29 c 0,-155.55 -71.39,-232.94 -233.74,-232.94 -162.32,0 -233.72,77.39 -233.72,232.94 v 314.89 h 139.8 v -323.16 c 0,-69.14 25.55,-104.47 93.92,-104.47 68.36,0 93.95,35.33 93.95,104.47 v 323.16 h 139.79 v -314.89" style="fill:#211d1d;fill-opacity:1;fill-rule:nonzero;stroke:none" id="path22" inkscape:connector-curvature="0"/><path d="m 3542.72,2275.19 h 427.65 v -112.02 h -287.89 v -93.95 h 263.08 v -108.21 h -263.08 v -102.18 h 295.37 v -120.25 h -435.13 v 536.61" style="fill:#211d1d;fill-opacity:1;fill-rule:nonzero;stroke:none" id="path24" inkscape:connector-curvature="0"/><path d="m 1535.74,2962.13 h 139.77 v -416.36 h 250.23 v -120.21 h -390 v 536.57" style="fill:#211d1d;fill-opacity:1;fill-rule:nonzero;stroke:none" id="path26" inkscape:connector-curvature="0"/><path d="m 1949.73,2962.13 h 427.62 V 2850.18 H 2089.5 v -93.96 h 263.04 v -108.2 H 2089.5 v -102.25 h 295.36 v -120.21 h -435.13 v 536.57" style="fill:#211d1d;fill-opacity:1;fill-rule:nonzero;stroke:none" id="path28" inkscape:connector-curvature="0"/><path d="m 2914.58,2425.57 h -90.18 l -8.26,58.62 c -36.85,-51.87 -99.95,-69.91 -149.54,-69.91 -162.32,0 -267.56,123.98 -267.56,279.59 0,155.55 105.24,279.56 267.56,279.56 111.21,0 229.94,-59.39 242.71,-193.9 h -139.79 c -4.49,45.81 -49.56,73.63 -105.93,73.63 -90.2,0 -124.79,-79.66 -124.79,-159.29 0,-79.72 34.59,-159.35 124.79,-159.35 69.12,0 115.7,32.33 123.22,81.18 h -97.69 v 103.69 h 225.46 v -293.82" style="fill:#211d1d;fill-opacity:1;fill-rule:nonzero;stroke:none" id="path30" inkscape:connector-curvature="0"/><path d="m 3203.08,2534.51 c 90.14,0 124.73,79.66 124.73,159.35 0,79.63 -34.59,159.29 -124.73,159.29 -90.21,0 -124.76,-79.66 -124.76,-159.29 0,-79.69 34.55,-159.35 124.76,-159.35 m 0,438.92 c 169.09,0 264.53,-124.02 264.53,-279.57 0,-155.57 -95.44,-279.59 -264.53,-279.59 -169.15,0 -264.56,124.02 -264.56,279.59 0,155.55 95.41,279.57 264.56,279.57" style="fill:#211d1d;fill-opacity:1;fill-rule:nonzero;stroke:none" id="path32" inkscape:connector-curvature="0"/><path d="m 3510.59,2908.18 c 4.79,0 7.52,2.31 7.52,6.68 0,4.21 -2.48,6.49 -7.3,6.49 -1.09,0 -1.27,0 -2.33,-0.18 v -12.78 c 0.84,-0.21 1.24,-0.21 2.11,-0.21 m -19.46,25.98 c 2.75,0.16 3.12,0.37 8.57,0.8 5.44,0.43 7.73,0.62 10.02,0.62 17.82,0 26.6,-6.9 26.6,-20.07 0,-7.95 -3.34,-12.74 -10.45,-15.5 l -0.86,-0.18 c 0.65,-0.44 0.86,-0.63 1.05,-1.06 1.88,-1.7 8.16,-11.07 13.42,-19.68 h -20.32 c -4.18,7.77 -5.45,9.88 -10.68,18.63 v -18.63 h -17.35 z m 20.94,-75.14 c 26.36,0 47.49,21.13 47.49,47.27 0,26.36 -21.13,47.51 -47.49,47.51 -26.17,0 -47.3,-21.15 -47.3,-47.29 0,-26.55 20.91,-47.49 47.3,-47.49 m 0,101.47 c 29.89,0 54.14,-24.07 54.14,-53.98 0,-30.1 -24.07,-54.17 -54.14,-54.17 -30.35,0 -54.01,23.63 -54.01,54.17 0,30.09 23.88,53.98 54.01,53.98" style="fill:#211d1d;fill-opacity:1;fill-rule:nonzero;stroke:none" id="path34" inkscape:connector-curvature="0"/><path d="m 2508.8,4696.83 c 39.04,0 76.99,-3.57 113.19,-10.19 l 86.09,89.75 c -60.2,20.85 -127.82,32.55 -199.28,32.55 -121.52,0 -231.8,-33.88 -313.59,-89.03 l 75.05,-71.1 c 69.35,30.41 151.05,48.02 238.54,48.02" style="fill:#959596;fill-opacity:1;fill-rule:nonzero;stroke:none" id="path36" inkscape:connector-curvature="0"/><path d="m 2508.8,4808.94 c 71.46,0 139.08,-11.72 199.28,-32.54 l 93.64,97.47 c -87.36,34.43 -187,54.01 -292.92,54.01 -157.84,0 -301.87,-43.45 -411.82,-114.92 l 98.23,-93.05 c 81.79,55.16 192.07,89.03 313.59,89.03" style="fill:#ffffff;fill-opacity:1;fill-rule:nonzero;stroke:none" id="path38" inkscape:connector-curvature="0"/><path d="m 2059.21,4427.54 c 7.89,32.17 22.43,62.71 42.44,90.92 l -37.71,38.11 c -7.45,-23.45 -11.6,-47.86 -11.6,-72.97 0,-19.12 2.38,-37.84 6.87,-56.06" style="fill:#959596;fill-opacity:1;fill-rule:nonzero;stroke:none" id="path40" inkscape:connector-curvature="0"/><path d="m 1780.47,4216.58 -15.84,-82.07 157.58,67.82 c -9.92,20.91 -11.88,48.19 -17.63,70.38 l -124.11,-56.13" style="fill:#959596;fill-opacity:1;fill-rule:nonzero;stroke:none" id="path42" inkscape:connector-curvature="0"/><path d="m 1669.61,5109.42 -228.06,-1248.77 107.88,-8.78 225.79,1266.92 -105.61,-9.37" style="fill:#959596;fill-opacity:1;fill-rule:nonzero;stroke:none" id="path44" inkscape:connector-curvature="0"/><path d="m 2436.45,4390.82 v 100.97 l -165.63,157 -75.02,71.12 -98.22,93.05 -322.72,305.86 -225.91,-1266.95 477.95,210.08 c -47.58,42.07 -81.3,86.89 -106.36,139.7 l -155.57,-66.79 15.59,81.71 100.82,525.45 8.41,44.09 83.25,-83.8 107.13,-107.87 45.97,-46.34 189.04,-162.88 -183.5,-84.08 c 47.67,-47.64 104.12,-89.56 180.23,-113.26 l 228.95,102.84 -104.41,100.1" style="fill:#ec1d27;fill-opacity:1;fill-rule:nonzero;stroke:none" id="path46" inkscape:connector-curvature="0"/><path d="m 2958.38,4427.54 c 4.46,18.22 6.9,36.94 6.9,56.06 0,56.39 -20.64,109.63 -56.11,155.88 l -54.39,-56.3 c 52.19,-43.47 89.31,-96.96 103.6,-155.64" style="fill:#959596;fill-opacity:1;fill-rule:nonzero;stroke:none" id="path48" inkscape:connector-curvature="0"/><path d="m 3060.56,3893.04 -128.84,123.78 c -20.58,-14.08 -42.63,-27.14 -65.65,-39.1 l 194.49,-186.76 599.84,624.77 -0.69,101.16 -599.15,-623.85" style="fill:#959596;fill-opacity:1;fill-rule:nonzero;stroke:none" id="path50" inkscape:connector-curvature="0"/><path d="m 2623.48,4312.64 -106.14,101.9 -81.17,77.52 -0.28,-101.25 114.15,-109.64 109.14,-104.8 c 27.72,6.89 54.23,15.63 79.16,25.96 l -114.86,110.31" style="fill:#959596;fill-opacity:1;fill-rule:nonzero;stroke:none" id="path52" inkscape:connector-curvature="0"/><path d="m 3040.56,4877.65 -85.42,-88.91 -94.16,-98.15 -64.26,-66.86 -121.64,-126.68 50.96,-48.93 129.46,134.81 54.14,56.33 99.17,103.3 31.75,33.07 329.8,-316.19 51.04,52.96 -380.84,365.25" style="fill:#959596;fill-opacity:1;fill-rule:nonzero;stroke:none" id="path54" inkscape:connector-curvature="0"/><path d="m 3008.81,4742.55 -99.18,-103.26 c 35.48,-46.25 55.62,-99.31 55.62,-155.7 0,-19.11 -2.44,-37.84 -6.86,-56.06 -11.61,-47.48 -37.62,-91.43 -74.71,-129.46 -37.99,-38.95 -87.61,-71.71 -145.34,-95.74 -24.93,-10.33 -51.44,-19.06 -79.16,-25.96 -47.08,-11.66 -97.69,-18.12 -150.38,-18.12 -64.9,0 -126.55,9.68 -182.45,27.09 -76.13,23.71 -141.41,61.75 -189.11,109.39 -17.39,17.35 -32.42,36.02 -44.86,55.71 -15.28,24.26 -26.54,50.09 -33.16,77.09 -4.49,18.22 -6.87,36.95 -6.87,56.06 0,25.12 4.12,49.53 11.6,72.98 l -113.9,115.33 c -41.7,-61.85 -65.24,-131.57 -65.24,-205.38 0,-19.03 1.76,-37.72 4.76,-56.09 7.3,-44.61 23.3,-87.18 46.56,-126.93 11.69,-19.98 25.24,-39.22 40.49,-57.6 40.1,-48.35 91.76,-90.79 152.33,-125.22 105.15,-59.84 236.84,-95.53 379.85,-95.53 100.08,0 194.56,17.44 278.33,48.38 25.42,9.4 49.83,20.05 73.16,31.8 54.01,27.35 101.93,60.76 141.93,98.93 67.1,64.13 111.96,141.59 125.81,226.17 3.04,18.37 4.73,37.06 4.73,56.09 0,103.5 -46.08,199.06 -123.95,276.03" style="fill:#ffffff;fill-opacity:1;fill-rule:nonzero;stroke:none" id="path56" inkscape:connector-curvature="0"/><path d="m 2622.92,4311.89 114.52,-109.94 c 57.63,24.03 107.66,56.42 145.71,95.34 l -156.97,150.75 -50.95,48.91 121.02,126.02 64.16,66.86 94.2,98.15 85.41,88.91 379.95,-364.79 -50.98,-53.14 -311.27,-324.11 c -32.83,-44.92 -75.33,-84.8 -125.6,-119.22 l 127.92,-123.41 599.8,624.74 -624.71,599.8 -233.96,-243.64 -93.64,-97.51 -86.16,-89.75 -185.18,-193.81 186.73,-180.16" style="fill:#2f61b6;fill-opacity:1;fill-rule:nonzero;stroke:none" id="path58" inkscape:connector-curvature="0"/><path d="m 2094.99,4347.37 c 0,0 2.99,-4.93 3.31,-5.48 9.18,-14.57 21.74,-27.9 33.68,-41.2 l 186.61,86.21 -428.86,399.37 -11.66,-61.77 336.42,-333.12 -119.5,-44.01" style="fill:#959596;fill-opacity:1;fill-rule:nonzero;stroke:none" id="path60" inkscape:connector-curvature="0"/><path d="m 3132.76,4466.51 c 0,-19 -1.7,-37.68 -4.73,-56.09 -13.86,-84.57 -58.72,-162.04 -125.81,-226.16 -39.97,-38.17 -87.92,-71.59 -141.94,-98.93 -23.32,-11.76 -47.7,-22.4 -73.15,-31.8 -83.78,-30.94 -178.26,-48.39 -278.33,-48.39 -143.01,0 -274.71,35.7 -379.85,95.53 -60.57,34.43 -112.24,76.87 -152.33,125.23 -15.25,18.37 -28.8,37.62 -40.5,57.6 -23.26,39.75 -39.25,82.31 -46.55,126.92 -3,18.41 -4.76,37.09 -4.76,56.09 0,5.97 0.46,11.88 0.77,17.76 -0.07,0.34 -0.19,0.77 -0.22,1.05 -3.06,-18.37 -0.55,-111.99 -0.55,-130.95 0,-30.1 4.01,-59.48 11.47,-87.98 5.79,-22.21 13.77,-43.84 23.7,-64.75 25.06,-52.8 62.64,-101.25 110.25,-143.32 114.49,-100.97 286.4,-165.29 478.57,-165.29 133.39,0 256.86,31.04 358.26,83.71 23.05,11.97 44.95,25.06 65.55,39.14 50.27,34.4 92.84,74.8 125.63,119.75 47.52,65.06 74.52,139.55 74.52,218.74 0,16.71 1.46,95.84 -0.18,127.3 -0.25,4.27 0.18,-9.68 0.18,-15.16" style="fill:#959596;fill-opacity:1;fill-rule:nonzero;stroke:none" id="path62" inkscape:connector-curvature="0"/><path d="m 1456.69,3707.67 h 427.03 l -40.22,-164.45 h -204.7 l -20.2,-86.38 h 213.49 l -37.19,-152.35 h -210.73 l -50.61,-216.46 h -220.57 l 143.7,619.64" style="fill:#211d1d;fill-opacity:1;fill-rule:nonzero;stroke:none" id="path64" inkscape:connector-curvature="0"/><path d="m 1941.76,3707.67 h 220.6 l -143.7,-619.64 h -220.6 l 143.7,619.64" style="fill:#211d1d;fill-opacity:1;fill-rule:nonzero;stroke:none" id="path66" inkscape:connector-curvature="0"/><path d="m 2382.96,3412.23 c 70.84,0 120.43,41.83 120.43,101.25 0,31.62 -23.29,47.39 -68.8,47.39 -13.18,0 -20.23,-0.93 -34.43,-3.71 l -33.38,-143.08 c 7.09,-0.92 8.07,-1.85 16.18,-1.85 m -162.91,291.72 14.17,1.85 c 70.84,8.36 158.86,13.93 207.43,13.93 80.98,0 143.69,-9.29 191.27,-28.77 60.69,-25.09 97.16,-79.91 97.16,-145.86 0,-56.68 -19.23,-110.57 -55.68,-152.36 -31.37,-36.22 -59.67,-53.89 -118.39,-71.56 l -14.16,-4.63 c 6.09,-4.64 8.1,-6.5 11.13,-9.28 17.2,-19.52 68.8,-119.85 112.33,-219.24 h -242.88 c -31.36,88.26 -40.46,111.46 -81.95,211.82 l -48.59,-211.82 h -214.51 l 142.67,615.92" style="fill:#211d1d;fill-opacity:1;fill-rule:nonzero;stroke:none" id="path68" inkscape:connector-curvature="0"/><path d="m 3253.74,3707.67 h 535.25 l -37.41,-179.4 h -158.85 l -105.24,-440.24 h -220.6 l 105.24,440.24 h -172.18 l 53.79,179.4" style="fill:#211d1d;fill-opacity:1;fill-rule:nonzero;stroke:none" id="path70" inkscape:connector-curvature="0"/><path d="m 3589.29,3146.72 c 4.77,0 7.49,2.3 7.49,6.65 0,4.18 -2.51,6.47 -7.27,6.47 -1.08,0 -1.27,0 -2.32,-0.22 v -12.68 c 0.83,-0.22 1.24,-0.22 2.1,-0.22 m -19.36,25.8 c 2.72,0.22 3.12,0.4 8.54,0.84 5.41,0.4 7.7,0.62 9.96,0.62 17.69,0 26.41,-6.87 26.41,-19.98 0,-7.89 -3.31,-12.69 -10.36,-15.38 l -0.87,-0.22 c 0.62,-0.43 0.87,-0.61 1.06,-1.01 1.85,-1.68 8.1,-11.05 13.3,-19.59 h -20.14 c -4.18,7.7 -5.41,9.81 -10.64,18.53 v -18.53 h -17.26 z m 20.82,-74.68 c 26.2,0 47.21,21.01 47.21,47.03 0,26.2 -21.01,47.2 -47.21,47.2 -26.02,0 -47.02,-21 -47.02,-47.02 0,-26.41 20.82,-47.21 47.02,-47.21 m 0,100.88 c 29.72,0 53.86,-23.9 53.86,-53.67 0,-29.94 -23.92,-53.86 -53.86,-53.86 -30.16,0 -53.67,23.52 -53.67,53.86 0,29.95 23.69,53.67 53.67,53.67" style="fill:#211d1d;fill-opacity:1;fill-rule:nonzero;stroke:none" id="path72" inkscape:connector-curvature="0"/><path d="m 2687,3103.77 c 62.02,-18.44 129.83,-28.77 193.22,-28.77 86.03,0 151.77,19.52 208.44,60.38 62.74,44.61 103.2,113.35 103.2,175.59 0,41.83 -18.19,79.91 -50.57,106.86 -25.31,20.42 -51.61,36.22 -105.25,61.3 l -43.49,20.42 c -14.2,7.46 -21.25,14.89 -21.25,23.24 0,22.3 28.33,39.01 66.78,39.01 28.74,0 63.05,-8.36 128.57,-29.8 l 45.23,167.77 c -49.04,13.3 -96.77,19.95 -144.47,19.95 -180.1,0 -318.76,-98.47 -318.76,-225.73 0,-66.89 44.52,-114.28 155.82,-166.28 52.66,-24.16 61.78,-30.66 61.78,-47.39 0,-25.06 -27.35,-40.86 -71.86,-40.86 -39.48,0 -90.05,12.06 -158.89,37.14 l -0.09,-0.02 -48.41,-172.81" style="fill:#211d1d;fill-opacity:1;fill-rule:nonzero;stroke:none" id="path74" inkscape:connector-curvature="0"/><path d="M 4437.33,1410.43 H 703.895 c -73.555,0 -133.172,-59.63 -133.172,-133.18 V 752.809 c 0,-73.559 59.617,-133.18 133.172,-133.18 H 4437.33 c 73.55,0 133.18,59.621 133.18,133.18 v 524.441 c 0,73.55 -59.63,133.18 -133.18,133.18" style="fill:#ec1d27;fill-opacity:1;fill-rule:nonzero;stroke:none" id="path76" inkscape:connector-curvature="0"/><path d="m 1206.35,1148.26 c -3.53,5.88 -7.64,11.48 -12.34,16.78 -4.71,5.29 -9.81,9.99 -15.31,14.11 -5.5,4.12 -10.99,7.37 -16.46,9.72 -7.86,3.13 -15.89,4.88 -24.12,5.28 -8.23,0.39 -16.49,-0.19 -24.72,-1.76 -8.23,-1.58 -16.29,-3.82 -24.13,-6.76 -7.83,-2.95 -15.49,-6 -22.94,-9.12 -12.93,-5.5 -25.19,-11.39 -36.77,-17.66 -11.56,-6.27 -23.03,-13.72 -34.415,-22.34 -15.7,-11.77 -28.918,-25.99 -39.707,-42.66 -10.797,-16.69 -19.114,-34.43 -25,-53.25 -5.891,-18.83 -9.02,-38.23 -9.415,-58.241 -0.398,-20 1.778,-39.218 6.485,-57.648 3.125,-12.57 7.637,-24.52 13.523,-35.902 5.864,-11.387 13.137,-22.161 21.758,-32.348 14.516,-17.281 30.891,-30.199 49.131,-38.84 18.23,-8.621 36.86,-13.121 55.88,-13.531 19.02,-0.391 37.85,3.242 56.48,10.879 18.63,7.66 35.59,19.511 50.9,35.601 6.65,6.668 13.33,14.02 20.01,22.071 6.65,8.031 11.16,16.769 13.53,26.179 1.94,9.418 1.07,17.539 -2.65,24.41 -3.75,6.86 -8.94,11.86 -15.59,15.008 -6.68,3.121 -14.03,4.203 -22.07,3.223 -8.03,-0.969 -15.22,-4.609 -21.47,-10.879 -5.1,-8.223 -10.8,-16.371 -17.05,-24.41 -6.29,-8.043 -13.36,-14.82 -21.2,-20.301 -9.02,-5.879 -18.43,-9.312 -28.23,-10.301 -9.81,-0.98 -19.42,0.192 -28.84,3.532 -9.41,3.328 -18.03,8.328 -25.87,15.007 -7.86,6.661 -14.12,14.512 -18.82,23.539 -8.262,15.282 -12.969,31.563 -14.125,48.832 -1.184,17.239 0.59,34.3 5.297,51.18 3.888,14.11 10.178,26.85 18.828,38.24 8.59,11.37 18.72,21.38 30.3,30 11.55,8.62 24.09,15.98 37.65,22.07 13.53,6.07 26.94,10.87 40.3,14.42 1.55,0.38 3.92,0.57 7.05,0.57 5.1,-1.96 9.02,-5.2 11.78,-9.7 2.73,-4.52 5.58,-9.13 8.51,-13.83 2.96,-4.71 6.88,-8.63 11.78,-11.77 4.91,-3.15 11.86,-4.11 20.88,-2.93 5.5,0.77 10.37,2.65 14.71,5.58 4.32,2.94 7.73,6.57 10.29,10.89 2.54,4.31 4.12,9.12 4.71,14.42 0.59,5.28 0.28,10.49 -0.88,15.58 -1.57,5.48 -4.11,11.18 -7.66,17.06" style="fill:#ffffff;fill-opacity:1;fill-rule:nonzero;stroke:none" id="path78" inkscape:connector-curvature="0"/><path d="m 1583.13,1027.66 v 135.3 c 0,10.61 -2.85,18.93 -8.51,25.02 -5.7,6.08 -12.38,9.89 -20.01,11.47 -7.64,1.56 -15.5,0.59 -23.53,-2.94 -8.04,-3.53 -14.24,-9.61 -18.55,-18.24 -3.52,-7.06 -5.3,-14.52 -5.3,-22.36 v -125.9 h -137.05 v 132.95 c 0,3.15 -0.23,6 -0.59,8.55 -0.4,2.55 -1.19,5.38 -2.37,8.52 -3.92,9.81 -9.89,15.98 -17.96,18.53 -8.03,2.56 -15.98,2.35 -23.81,-0.58 -7.86,-2.94 -14.79,-8.14 -20.88,-15.59 -6.09,-7.46 -9.13,-16.28 -9.13,-26.48 V 851.75 c 0,-10.59 2.64,-19.512 7.94,-26.77 5.3,-7.25 11.67,-12.359 19.14,-15.3 7.44,-2.93 15.08,-3.039 22.94,-0.301 7.84,2.762 14.32,8.84 19.42,18.25 1.94,3.531 3.32,7.543 4.11,12.062 0.79,4.489 1.19,8.911 1.19,13.231 v 100.019 h 137.05 V 851.172 c 0,-4.332 0.51,-9.043 1.5,-14.133 0.95,-5.09 2.81,-9.617 5.57,-13.539 6.26,-8.602 13.33,-13.82 21.17,-15.59 7.86,-1.75 15.3,-1.058 22.38,2.059 7.04,3.152 13.02,8.543 17.92,16.179 4.91,7.653 7.36,16.372 7.36,26.192 v 102.371 c 9.01,1.949 15.89,6.371 20.6,13.23 4.7,6.86 7.16,14.219 7.36,22.059 0.19,7.84 -2.06,15.39 -6.77,22.65 -4.7,7.26 -11.78,12.27 -21.19,15.01" style="fill:#ffffff;fill-opacity:1;fill-rule:nonzero;stroke:none" id="path80" inkscape:connector-curvature="0"/><path d="m 1839.06,1003.54 c -13.95,0 -30.13,-0.21 -48.56,-0.6 5.89,17.66 12.26,35.02 19.14,52.07 6.85,17.06 14.2,34.21 22.06,51.48 10.57,-15.69 20.1,-32.26 28.53,-49.7 8.42,-17.46 16.37,-35.02 23.81,-52.67 -16.07,-0.39 -31.09,-0.58 -44.98,-0.58 z M 2007,993.531 c -6.26,6.669 -13.33,10.199 -21.16,10.589 -7.87,0.38 -15.9,0.38 -24.13,0 -13.73,34.91 -29.22,69.13 -46.47,102.66 -17.28,33.55 -39.23,63.64 -65.89,90.31 -6.68,6.27 -14.92,9.42 -24.72,9.42 -7.44,0 -13.73,-1.86 -18.83,-5.6 -5.1,-3.72 -9.52,-8.22 -13.25,-13.52 -3.72,-5.3 -6.95,-11.1 -9.69,-17.35 -2.76,-6.29 -5.5,-12.18 -8.23,-17.65 -2.37,-5.11 -4.82,-10.21 -7.35,-15.31 -2.57,-5.1 -5.02,-10.39 -7.36,-15.89 -27.87,-63.13 -50.59,-128.448 -68.26,-195.901 -3.13,-11.769 -6.45,-23.539 -10,-35.309 -3.53,-11.761 -5.87,-23.73 -7.05,-35.878 -1.19,-9.411 0.08,-17.75 3.83,-25.012 3.72,-7.25 8.63,-12.649 14.69,-16.168 6.09,-3.543 12.96,-4.813 20.6,-3.832 7.63,0.98 14.8,5.41 21.47,13.242 5.5,6.277 9.02,13.629 10.6,22.066 1.55,8.434 3.33,16.563 5.3,24.403 2.34,10.211 4.79,20.609 7.35,31.191 2.54,10.598 5.58,20.977 9.11,31.18 23.93,0.387 47.85,0.598 71.78,0.598 23.93,0 48.05,0.179 72.38,0.582 7.44,-22.75 13.13,-44.922 17.05,-66.481 1.54,-7.473 2.64,-15.012 3.24,-22.652 0.59,-7.66 3.41,-14.61 8.51,-20.887 5.89,-7.434 12.25,-12.062 19.13,-13.82 6.85,-1.762 13.33,-1.492 19.42,0.867 6.06,2.351 11.47,6.582 16.18,12.652 4.71,6.078 7.64,13.43 8.82,22.071 v 4.117 c -1.97,14.5 -4.43,28.91 -7.35,43.25 -2.93,14.293 -6.38,28.32 -10.29,42.062 7.04,1.559 13.02,4.489 17.92,8.821 4.9,4.308 8.46,9.41 10.6,15.296 2.17,5.883 2.73,11.954 1.77,18.243 -0.98,6.269 -4.22,12.14 -9.72,17.64" style="fill:#ffffff;fill-opacity:1;fill-rule:nonzero;stroke:none" id="path82" inkscape:connector-curvature="0"/><path d="m 2317.89,884.102 -3.52,1.179 c -25.12,-0.793 -49.92,-1.472 -74.44,-2.051 -24.51,-0.601 -49.12,-0.878 -73.84,-0.878 0,46.257 0.4,92.558 1.19,138.838 0.79,46.27 0.79,92.95 0,140.01 0,5.5 -1.66,10.5 -5.02,15.01 -3.32,4.52 -7.44,8.03 -12.34,10.59 -4.9,2.55 -10.21,4.12 -15.9,4.7 -5.66,0.59 -10.87,-0.1 -15.58,-2.05 -5.5,-2.36 -9.81,-5.21 -12.94,-8.53 -3.16,-3.34 -5.38,-8.64 -6.76,-15.88 -1.39,-7.27 -2.26,-17.26 -2.65,-30.02 -0.4,-12.73 -0.6,-29.51 -0.6,-50.29 0,-11.77 0,-25.31 0,-40.6 0,-15.3 -0.08,-30.88 -0.27,-46.759 -0.2,-15.902 -0.4,-31.492 -0.6,-46.781 -0.19,-15.301 -0.31,-28.828 -0.31,-40.598 0,-5.89 -0.08,-13.242 -0.28,-22.07 -0.2,-8.82 0,-17.633 0.59,-26.473 0.6,-8.82 1.95,-17.269 4.12,-25.289 2.14,-8.051 5.58,-14.031 10.28,-17.941 5.5,-5.098 11.98,-7.649 19.42,-7.649 7.44,0 14.72,0.192 21.79,0.59 28.24,0.399 51.94,0.57 71.16,0.57 19.22,0 35.12,0 47.66,0 12.57,0 22.38,0.122 29.42,0.301 7.07,0.207 12.54,0.891 16.49,2.051 10.17,3.168 17.73,7.758 22.63,13.84 4.9,6.078 7.44,12.547 7.67,19.41 0.19,6.859 -2.06,13.629 -6.77,20.309 -4.7,6.66 -11.58,12.14 -20.6,16.461" style="fill:#ffffff;fill-opacity:1;fill-rule:nonzero;stroke:none" id="path84" inkscape:connector-curvature="0"/><path d="m 2653.52,884.102 -3.52,1.179 c -25.11,-0.793 -49.92,-1.472 -74.43,-2.051 -24.52,-0.601 -49.13,-0.878 -73.85,-0.878 0,46.257 0.4,92.558 1.19,138.838 0.79,46.27 0.79,92.95 0,140.01 0,5.5 -1.66,10.5 -5.02,15.01 -3.32,4.52 -7.43,8.03 -12.34,10.59 -4.9,2.55 -10.2,4.12 -15.9,4.7 -5.66,0.59 -10.87,-0.1 -15.58,-2.05 -5.49,-2.36 -9.81,-5.21 -12.94,-8.53 -3.16,-3.34 -5.38,-8.64 -6.76,-15.88 -1.38,-7.27 -2.25,-17.26 -2.65,-30.02 -0.4,-12.73 -0.59,-29.51 -0.59,-50.29 0,-11.77 0,-25.31 0,-40.6 0,-15.3 -0.08,-30.88 -0.28,-46.759 -0.2,-15.902 -0.4,-31.492 -0.59,-46.781 -0.2,-15.301 -0.32,-28.828 -0.32,-40.598 0,-5.89 -0.08,-13.242 -0.28,-22.07 -0.2,-8.82 0,-17.633 0.6,-26.473 0.59,-8.82 1.94,-17.269 4.11,-25.289 2.14,-8.051 5.58,-14.031 10.28,-17.941 5.5,-5.098 11.98,-7.649 19.42,-7.649 7.44,0 14.72,0.192 21.79,0.59 28.24,0.399 51.94,0.57 71.16,0.57 19.22,0 35.12,0 47.66,0 12.57,0 22.38,0.122 29.42,0.301 7.08,0.207 12.55,0.891 16.49,2.051 10.17,3.168 17.73,7.758 22.63,13.84 4.91,6.078 7.44,12.547 7.67,19.41 0.2,6.859 -2.06,13.629 -6.77,20.309 -4.7,6.66 -11.58,12.14 -20.6,16.461" style="fill:#ffffff;fill-opacity:1;fill-rule:nonzero;stroke:none" id="path86" inkscape:connector-curvature="0"/><path d="m 2891.47,1119.44 c 14.88,0.38 29.79,0.59 44.7,0.59 10.2,0 20.88,-0.21 32.07,-0.59 11.19,-0.39 21.67,1.36 31.48,5.3 8.23,3.51 14.01,8.43 17.36,14.7 3.33,6.27 4.6,12.75 3.81,19.41 -0.79,6.67 -3.33,12.95 -7.64,18.83 -4.31,5.89 -10.2,10.2 -17.64,12.95 -6.29,2.35 -13.56,3.03 -21.79,2.06 -8.23,-0.99 -15.5,-1.47 -21.75,-1.47 -21.2,-0.41 -41.97,-0.59 -62.38,-0.59 -20.4,0 -40.8,-1.58 -61.18,-4.71 -9.81,-1.58 -19.81,-3.44 -30.02,-5.59 -10.2,-2.16 -19.22,-6.38 -27.05,-12.64 -4.71,-3.54 -8.04,-7.76 -10.01,-12.66 -1.97,-4.9 -2.64,-10 -2.05,-15.3 0.59,-5.28 2.25,-10.28 5.01,-14.99 2.74,-4.71 6.26,-8.64 10.57,-11.77 V 862.34 c 0,-14.508 6.09,-25.692 18.26,-33.539 6.65,-4.313 14.41,-6.852 23.23,-7.653 8.82,-0.777 16.96,-1.546 24.41,-2.359 25.89,-2.73 52.08,-3.219 78.54,-1.457 26.49,1.758 52.28,6.379 77.36,13.828 3.16,0.789 6.57,3.031 10.32,6.75 3.72,3.738 6.17,6.969 7.35,9.719 3.13,6.269 4.4,12.453 3.81,18.531 -0.59,6.078 -2.54,11.481 -5.87,16.192 -3.35,4.699 -7.66,8.718 -12.96,12.046 -5.3,3.344 -11.47,5.192 -18.52,5.594 h -4.11 c -21.19,-5.492 -42.75,-9.222 -64.74,-11.183 -21.95,-1.969 -43.74,-1.571 -65.3,1.171 v 72.379 c 8.23,-0.39 18.44,-0.589 30.61,-0.589 12.15,0 24.49,0.289 37.06,0.871 12.54,0.597 24.49,1.558 35.88,2.949 11.39,1.371 20.4,3.441 27.05,6.18 7.87,3.14 13.56,8.23 17.09,15.289 3.52,7.062 4.79,14.221 3.83,21.481 -0.99,7.25 -3.83,13.82 -8.54,19.71 -4.71,5.87 -11.39,9.42 -20.01,10.58 -6.68,0.79 -13.14,0.79 -19.42,0 -6.28,-0.79 -12.54,-1.38 -18.83,-1.76 -14.12,-1.18 -28.24,-2.15 -42.36,-2.95 -14.12,-0.78 -28.23,-0.78 -42.36,0 v 81.78 c 14.91,1.95 29.82,3.15 44.73,3.54" style="fill:#ffffff;fill-opacity:1;fill-rule:nonzero;stroke:none" id="path88" inkscape:connector-curvature="0"/><path d="m 3423.88,1182.97 c -1.38,2.74 -2.85,5.09 -4.43,7.06 -4.7,7.06 -10.28,11.77 -16.77,14.12 -6.45,2.36 -12.85,2.74 -19.1,1.18 -6.29,-1.57 -12.07,-4.91 -17.36,-10 -5.31,-5.09 -9.14,-11.58 -11.48,-19.41 l -0.59,-3.52 c 0,-35.72 -0.19,-71.2 -0.59,-106.5 -0.39,-35.29 -1.18,-70.81 -2.34,-106.478 -10.2,14.887 -20.71,29.797 -31.48,44.698 -10.79,14.9 -21.87,29.81 -33.25,44.72 -11.36,14.5 -23.73,29.9 -37.06,46.17 -13.34,16.28 -25.12,30.7 -35.29,43.25 -2.76,3.53 -6.2,8.14 -10.32,13.82 -4.11,5.69 -8.51,11.38 -13.21,17.07 -4.71,5.68 -9.53,10.98 -14.43,15.88 -4.91,4.9 -9.7,8.14 -14.41,9.71 -5.49,1.96 -11.18,2.73 -17.08,2.35 -5.86,-0.39 -11.35,-1.85 -16.45,-4.4 -5.1,-2.56 -9.33,-6.17 -12.66,-10.88 -3.32,-4.71 -4.99,-10.4 -4.99,-17.07 -0.39,-13.34 -0.39,-26.57 0,-39.71 0.37,-13.14 0.6,-26.39 0.6,-39.72 0,-9.81 0.08,-21.87 0.28,-36.18 0.2,-14.32 0.28,-29.71 0.28,-46.19 0,-16.471 0,-33.241 0,-50.292 0,-17.058 0,-33.046 0,-47.949 0,-14.91 0,-28.238 0,-40.008 0,-11.769 0,-20.402 0,-25.89 0,-9.41 2.76,-17.242 8.26,-23.52 5.46,-6.281 11.95,-10.199 19.42,-11.769 7.44,-1.571 14.79,-0.782 22.04,2.347 7.27,3.141 12.65,9.422 16.17,18.821 1.18,3.14 2.06,6.871 2.65,11.179 0.6,4.313 1.1,10.313 1.49,17.95 0.37,7.64 0.57,17.55 0.57,29.711 0,12.152 0,27.25 0,45.3 v 132.95 c 30.61,-38.05 60.03,-76.391 88.27,-115.008 28.24,-38.641 55.09,-78.942 80.6,-120.91 v 1.179 c 0,-0.383 0.17,-0.769 0.56,-1.179 3.56,-7.063 9.02,-12.051 16.49,-14.993 7.44,-2.949 14.8,-3.718 22.07,-2.347 7.24,1.379 13.72,4.609 19.42,9.707 5.66,5.09 8.51,12.14 8.51,21.179 3.16,56.082 5.41,112.071 6.76,167.972 1.38,55.88 1.67,111.87 0.9,167.96 0,2.35 -0.7,4.9 -2.05,7.64" style="fill:#ffffff;fill-opacity:1;fill-rule:nonzero;stroke:none" id="path90" inkscape:connector-curvature="0"/><path d="m 3838,1025.01 c -5.5,5.3 -12.15,9.11 -20.01,11.47 -15.67,0 -31.08,-0.2 -46.16,-0.59 -15.11,-0.4 -30.3,-0.57 -45.6,-0.57 -2.37,0 -5.7,0.07 -10.01,0.29 -4.31,0.18 -9.13,0.28 -14.4,0.28 -5.3,0 -10.6,-0.1 -15.9,-0.28 -5.29,-0.22 -9.72,-0.69 -13.24,-1.49 -7.44,-1.95 -13.33,-5.69 -17.64,-11.17 -4.32,-5.5 -7.08,-11.47 -8.24,-17.94 -1.18,-6.479 -0.5,-12.951 2.06,-19.408 2.54,-6.493 7.16,-11.68 13.81,-15.61 7.08,-3.91 14.63,-6.562 22.66,-7.933 8.04,-1.368 16.26,-1.969 24.72,-1.77 8.42,0.191 16.85,0.793 25.28,1.77 8.46,0.98 16.57,1.66 24.43,2.062 v -63.539 c -9.8,-9.812 -20.99,-16.684 -33.53,-20.59 -12.58,-3.922 -25.31,-5.293 -38.25,-4.133 -12.93,1.192 -25.39,4.813 -37.37,10.903 -11.95,6.07 -22.43,14.008 -31.45,23.828 -13.75,14.89 -23.17,32.25 -28.24,52.051 -5.1,19.808 -6.09,39.729 -2.96,59.719 2.37,16.08 7.75,29.8 16.18,41.19 8.42,11.37 18.54,21.18 30.29,29.41 11.78,8.24 24.6,15.21 38.56,20.88 13.89,5.68 27.73,10.5 41.45,14.41 4.71,0.8 9.53,1.27 14.43,1.49 4.91,0.18 9.5,-0.51 13.81,-2.07 5.1,-1.56 10.6,-3.53 16.49,-5.88 5.89,-2.35 11.75,-4.21 17.64,-5.6 5.9,-1.37 11.67,-1.75 17.37,-1.17 5.66,0.6 11.07,2.83 16.17,6.77 5.1,3.92 8.63,8.33 10.6,13.23 1.94,4.9 2.65,10.01 2.05,15.31 -0.59,5.3 -2.36,10.48 -5.29,15.58 -2.93,5.1 -6.57,9.42 -10.88,12.95 -9.05,7.44 -19.92,12.64 -32.66,15.59 -12.74,2.95 -24.61,4.8 -35.6,5.59 -14.52,0.77 -28.83,-0.21 -42.95,-2.95 -14.12,-2.74 -27.85,-6.85 -41.18,-12.35 -17.28,-6.67 -34.01,-14.51 -50.3,-23.54 -16.27,-9.01 -30.7,-20.39 -43.24,-34.11 -10.59,-11.76 -19.41,-24.92 -26.46,-39.43 -7.08,-14.51 -12.18,-29.71 -15.3,-45.59 -3.16,-15.88 -4.43,-31.97 -3.84,-48.25 0.59,-16.269 2.85,-31.851 6.77,-46.769 6.28,-23.531 16.37,-45.492 30.29,-65.879 13.93,-20.422 31.09,-37.07 51.49,-50.012 16.07,-10.199 32.84,-17.648 50.31,-22.359 17.45,-4.711 34.81,-6.481 52.06,-5.289 17.24,1.16 34.12,5 50.58,11.457 16.49,6.48 31.97,15.781 46.48,27.953 4.31,3.539 8.45,7.258 12.37,11.18 3.92,3.91 7.24,8.429 10.01,13.539 2.73,6.269 4.5,14.988 5.29,26.179 0.77,11.172 1.07,22.25 0.88,33.239 -0.2,10.961 -0.51,20.671 -0.88,29.113 -0.39,8.43 -0.22,13.25 0.56,14.418 8.27,5.101 13.65,10.879 16.21,17.359 2.54,6.473 2.94,12.931 1.16,19.421 -1.75,6.46 -5.38,12.34 -10.88,17.64" style="fill:#ffffff;fill-opacity:1;fill-rule:nonzero;stroke:none" id="path92" inkscape:connector-curvature="0"/><path d="m 4064.79,1119.44 c 14.88,0.38 29.79,0.59 44.7,0.59 10.2,0 20.88,-0.21 32.07,-0.59 11.19,-0.39 21.67,1.36 31.48,5.3 8.23,3.51 14.01,8.43 17.36,14.7 3.33,6.27 4.6,12.75 3.81,19.41 -0.8,6.67 -3.33,12.95 -7.64,18.83 -4.31,5.89 -10.21,10.2 -17.64,12.95 -6.29,2.35 -13.56,3.03 -21.79,2.06 -8.23,-0.99 -15.5,-1.47 -21.76,-1.47 -21.19,-0.41 -41.96,-0.59 -62.37,-0.59 -20.4,0 -40.81,-1.58 -61.18,-4.71 -9.81,-1.58 -19.82,-3.44 -30.02,-5.59 -10.2,-2.16 -19.22,-6.38 -27.05,-12.64 -4.71,-3.54 -8.04,-7.76 -10.01,-12.66 -1.97,-4.9 -2.65,-10 -2.05,-15.3 0.59,-5.28 2.25,-10.28 5.01,-14.99 2.74,-4.71 6.26,-8.64 10.57,-11.77 V 862.34 c 0,-14.508 6.09,-25.692 18.26,-33.539 6.65,-4.313 14.4,-6.852 23.23,-7.653 8.82,-0.777 16.96,-1.546 24.4,-2.359 25.9,-2.73 52.09,-3.219 78.55,-1.457 26.49,1.758 52.28,6.379 77.36,13.828 3.16,0.789 6.57,3.031 10.32,6.75 3.72,3.738 6.17,6.969 7.35,9.719 3.13,6.269 4.4,12.453 3.8,18.531 -0.59,6.078 -2.53,11.481 -5.86,16.192 -3.35,4.699 -7.66,8.718 -12.96,12.046 -5.3,3.344 -11.47,5.192 -18.51,5.594 h -4.12 c -21.19,-5.492 -42.76,-9.222 -64.74,-11.183 -21.95,-1.969 -43.74,-1.571 -65.3,1.171 v 72.379 c 8.23,-0.39 18.43,-0.589 30.61,-0.589 12.14,0 24.49,0.289 37.06,0.871 12.54,0.597 24.49,1.558 35.87,2.949 11.39,1.371 20.41,3.441 27.06,6.18 7.87,3.14 13.56,8.23 17.08,15.289 3.53,7.062 4.79,14.221 3.83,21.481 -0.98,7.25 -3.83,13.82 -8.54,19.71 -4.7,5.87 -11.38,9.42 -20.01,10.58 -6.68,0.79 -13.13,0.79 -19.42,0 -6.28,-0.79 -12.53,-1.38 -18.82,-1.76 -14.12,-1.18 -28.24,-2.15 -42.36,-2.95 -14.12,-0.78 -28.24,-0.78 -42.36,0 v 81.78 c 14.91,1.95 29.82,3.15 44.73,3.54" style="fill:#ffffff;fill-opacity:1;fill-rule:nonzero;stroke:none" id="path94" inkscape:connector-curvature="0"/></g></g></svg>
